PathFileType	4	(X/Y/Z)	C:/Users/beibeiliu/ov580/test_trc/User1\sequence.20_training_dense_right.trc
DataRate	CameraRate	NumFrames	NumMarkers	Units	OrigDataRate	OrigDataStartFrame	OrigNumFrames
120	120	18	19	mm	120	231	263
Frame#	Time	ThumbCMC			ThumbMCP			ThumbIP			ThumbTip			IndexMCP			IndexPIP			IndexTip			MiddleMCP			MiddlePIP			MiddleTip			RingMCP			RingPIP			RingTip			PinkyMCP			PinkyPIP			PinkyTip			BackHand1			BackHand2			BackHand3	
		X0	Y0	Z0	X1	Y1	Z1	X2	Y2	Z2	X3	Y3	Z3	X4	Y4	Z4	X5	Y5	Z5	X6	Y6	Z6	X7	Y7	Z7	X8	Y8	Z8	X9	Y9	Z9	X10	Y10	Z10	X11	Y11	Z11	X12	Y12	Z12	X13	Y13	Z13	X14	Y14	Z14	X15	Y15	Z15	X16	Y16	Z16	X17	Y17	Z17	X18	Y18	Z18	
230	1.91667	134.03	0.612073	55.5975	106.636	3.75365	28.1198	93.1428	-0.176766	5.33121	78.4593	-16.0908	-14.4093	166.456	-39.7892	-5.68602	164.125	-56.262	-30.0921	148.264	-63.321	-55.7793	166.894	-66.8168	-1.45676	164.94	-78.0416	-37.8679	140.912	-78.958	-59.1653	156.021	-79.1958	6.07048	152.488	-94.2455	-26.0312	133.388	-94.6523	-49.1452	137.227	-90.0404	21.0674	137.38	-97.4089	-2.27369	134.818	-96.8401	-24.6825	150.789	-66.6145	59.0305	151.791	-58.0646	91.6917	162.106	-27.1087	62.7295	
231	1.925	140.809	4.67342	53.7126	114.013	10.0134	24.3493	100.43	9.13426	1.85	83.3916	-6.76064	-16.717	167.174	-44.7339	-7.86026	161.707	-61.2386	-37.4929	140.674	-67.7017	-58.3718	160.731	-73.754	-3.41614	156.363	-84.4593	-38.5791	131.621	-82.7959	-59.0267	148.466	-83.0897	5.12614	145.48	-95.9373	-23.622	125.139	-97.572	-45.7402	126.656	-91.8889	23.8805	126.585	-98.3909	-2.96066	127.754	-95.7908	-27.5885	146.489	-67.1836	56.3826	148.951	-60.6426	86.8879	163.396	-35.9768	60.1282	
232	1.93333	147.732	0.902426	54.7407	122.014	10.2659	25.5538	108.389	10.0275	-2.92737	87.7193	1.93569	-20.74	165.449	-53.4574	-10.1718	156.606	-66.0789	-36.9186	137.513	-67.7185	-58.315	156.775	-78.8276	-7.62005	150.756	-87.6893	-37.3941	121.194	-79.1378	-63.5966	141.406	-89.165	3.91081	136.643	-96.4598	-28.9544	118.279	-92.0904	-50.5313	121.497	-87.491	20.1105	120.345	-94.4952	-5.16129	119.286	-93.486	-26.6153	141.315	-70.7835	52.4468	143.766	-61.2327	89.5235	166.439	-35.6547	59.8843	
233	1.94167	154.582	-0.408128	53.4364	131.725	14.0042	22.7623	117.044	12.5481	-4.653	96.7859	11.1053	-21.4052	165.002	-53.5306	-8.9522	155.037	-68.4492	-39.093	136.43	-66.4549	-57.5885	156.501	-77.0852	-7.54326	146.727	-86.7089	-39.3583	120.514	-74.1537	-65.1009	137.29	-86.9497	3.54979	129.742	-97.5405	-25.7913	110.831	-89.8313	-51.1811	114.412	-83.9774	21.3366	112.756	-92.9275	-6.5193	111.408	-94.0138	-28.4949	139.325	-69.4566	56.2736	144.558	-62.1001	84.3811	165.086	-42.881	60.0424	
234	1.95	158.234	-0.467541	54.37	137.521	12.9769	21.7566	122.941	15.2725	-4.60581	103.791	10.2037	-20.6499	162.399	-58.7222	-11.065	152.054	-68.8609	-37.6368	135.827	-63.6305	-62.4017	151.297	-78.0377	-6.16495	143.711	-86.2655	-38.6448	117.144	-70.909	-63.9335	135.162	-85.0201	2.91953	126.589	-95.5015	-26.5293	108.511	-83.511	-53.905	110.497	-83.6241	19.0452	111.563	-86.9069	-3.80062	109.925	-87.6138	-29.1792	139.238	-69.7393	53.5463	143.447	-61.5759	84.3848	165.034	-44.0494	58.2809	
235	1.95833	162.527	-2.34924	50.6574	144.249	16.4166	23.7432	129.775	19.1204	-4.83285	109.559	18.6295	-21.7563	165.132	-55.5363	-12.0166	155.266	-67.2626	-40.4414	133.793	-64.9905	-58.0106	151.127	-77.8789	-8.66462	139.391	-84.7675	-42.767	117.727	-70.3624	-62.8837	131.651	-83.3268	3.63137	123.177	-93.728	-26.8264	107.043	-82.3722	-50.9007	112.445	-77.9755	18.2398	105.673	-86.7093	-8.31903	105.01	-85.6357	-30.0473	141.071	-66.844	53.0314	143.229	-61.3906	83.7156	167.552	-45.9064	57.1235	
236	1.96667	166.867	-2.66699	51.546	150.403	18.2383	25.7506	135.267	18.8548	-3.03112	114.737	17.8535	-21.6955	164.799	-57.9246	-9.9644	157.766	-67.0351	-39.2538	138.67	-62.4053	-64.4333	150.494	-78.0066	-9.04507	142.113	-84.0725	-41.2502	115.209	-66.6828	-65.4804	130.872	-84.6841	-0.477899	122.849	-92.2744	-28.8741	109.504	-79.5923	-52.1058	113.081	-78.0666	13.2561	108.937	-81.4576	-8.50667	107.384	-81.2487	-36.4399	135.302	-69.2582	51.8801	141.417	-59.5026	85.7754	166.62	-46.7736	56.2768	
237	1.975	171.174	-3.23841	51.3434	156.427	19.5134	22.739	141.953	20.4513	-3.07957	121.105	19.6038	-20.6578	168.249	-58.9425	-8.46338	158	-69.7869	-35.4265	138.565	-65.1147	-64.2182	152.721	-81.0559	-10.9806	141.618	-85.0413	-43.5327	119.838	-66.3903	-66.863	133.868	-85.4649	-2.75363	127.46	-89.9292	-30.4676	110.884	-80.2887	-53.4399	113.673	-77.9454	13.993	108.622	-84.6287	-10.2579	109.37	-80.2556	-35.5542	141.501	-69.0074	50.5604	144.562	-61.0432	83.227	170.272	-48.0659	59.258	
238	1.98333	172.951	-3.90451	55.304	158.954	15.7028	23.3017	147.412	22.5649	-4.29262	126.81	21.4994	-22.2796	171.635	-61.2265	-8.38026	167.754	-70.0861	-36.421	148.342	-66.1589	-61.8825	157.218	-81.538	-8.81349	144.527	-86.7536	-44.0686	128.042	-69.8053	-65.3399	138.637	-85.2813	-1.42349	130.724	-92.4132	-30.8513	114.951	-79.1685	-58.5458	115.255	-79.9949	12.8688	115.991	-83.1437	-8.76811	117.44	-83.4458	-36.5299	143.929	-68.7031	52.7342	141.477	-61.0636	85.1359	173.001	-48.4633	58.3196	
239	1.99167	175.801	-3.04157	50.4194	161.812	14.1805	23.5235	150.315	20.2906	-3.75321	129.257	15.4664	-26.6216	181.87	-60.3246	-7.61048	173.742	-73.0039	-34.3925	157.241	-69.2492	-61.7019	163.647	-83.1556	-7.34961	154.526	-91.5761	-39.3342	138.632	-71.5551	-67.2028	143.812	-89.5534	-2.52149	137.674	-94.7727	-33.1759	123.464	-83.5643	-58.7875	120.598	-81.358	14.925	122.736	-84.7041	-8.75752	121.669	-87.4318	-38.3888	146.727	-68.6894	48.8364	147.072	-60.4916	82.0183	174.004	-47.1811	61.5589	
240	2	175.344	-6.52485	52.8323	165.817	15.4979	19.2946	154.438	16.2208	-4.96267	135.243	15.0539	-27.1508	184.94	-66.4706	-5.93359	178.212	-78.1762	-35.1481	166.057	-72.71	-58.4521	169.998	-87.3884	-6.09695	165.762	-93.7245	-37.2709	148.046	-75.0282	-67.6223	151.462	-90.5977	0.792254	148.367	-97.8658	-31.9055	137.986	-89.0883	-54.5107	128.164	-87.6339	12.2925	131.304	-89.7894	-8.66178	131.651	-88.8272	-35.2302	147.909	-71.3134	54.5404	146.433	-62.6492	88.1184	177.571	-49.5769	61.7745	
241	2.00833	178.002	-6.93408	52.359	166.85	11.9358	17.1933	157.537	10.1828	-8.75983	138.599	2.6787	-29.7923	192.467	-66.4309	-2.24523	188.703	-80.746	-28.4945	176.142	-76.8641	-56.2815	179.321	-88.607	-2.35831	177.221	-97.376	-34.9248	155.58	-86.0415	-61.0542	160.165	-94.7987	4.15915	157.627	-104.051	-28.6829	144.336	-96.8444	-51.7251	136.016	-89.7927	16.66	139.17	-95.5043	-7.27526	140.538	-94.9456	-37.4751	155.009	-73.3008	56.5131	151.122	-60.8552	86.7066	180.893	-49.6986	62.4535	
242	2.01667	178.785	-7.20268	51.7821	166.62	5.91228	18.9936	158.985	8.43434	-9.85954	142.699	-0.677832	-28.2026	201.604	-64.6708	2.48098	197.881	-82.3868	-25.2803	182.082	-82.8294	-52.4169	186.968	-90.664	3.03193	188.085	-100.577	-32.4948	167.781	-93.3213	-57.6236	167.581	-96.9553	9.70864	170.107	-108.181	-23.3702	153.963	-102.717	-51.6058	143.475	-94.1207	21.0048	148.531	-102.283	-6.53311	153.54	-100.269	-34.4698	161.039	-73.4978	55.3285	153.958	-62.8817	89.7408	183.237	-45.9771	68.2715	
243	2.025	176.737	-3.89621	55.5321	164.374	5.61684	19.2258	157.794	1.26167	-9.87127	142.771	-6.55794	-32.523	206.809	-69.3138	2.55242	206.378	-82.6463	-22.5645	192.263	-85.5647	-49.447	194.906	-90.3022	8.47012	197.353	-105.177	-23.7885	178.866	-98.0536	-55.4488	178.842	-98.6727	11.7342	181.765	-109.961	-17.8004	169.559	-107.786	-44.4727	154.552	-95.2936	23.0151	160.634	-104.176	-1.83527	162.909	-103.179	-25.5953	165.173	-78.4786	58.7103	158.219	-63.334	89.8492	187.808	-44.7334	68.8005	
244	2.03333	172.367	-4.08034	55.8667	159.251	-0.523771	18.2697	153.667	-4.01711	-12.2309	140.487	-13.9213	-33.3077	209.998	-65.3562	5.87965	212.225	-81.497	-20.9524	198.113	-85.4144	-49.6252	205.993	-86.1517	10.4347	206.855	-103.083	-21.2579	188.861	-98.9954	-53.8412	188.126	-100.589	15.6411	190.713	-113.488	-12.6828	179.233	-110.292	-44.7905	163.476	-100.646	26.8886	171.507	-106.636	2.8428	173.642	-107.698	-26.8104	174.393	-74.8675	64.2666	162.917	-63.3017	92.6478	191.477	-42.9332	67.0512	
245	2.04167	166.935	-3.11942	55.8734	152.653	-2.6209	18.5549	147.584	-6.54917	-6.69045	136.57	-20.0809	-29.97	213.214	-54.9106	7.50352	219.597	-69.8234	-18.3948	202.909	-81.1726	-47.6538	213.974	-82.149	10.851	217.915	-94.5901	-19.3148	202.154	-96.9503	-50.167	197.672	-96.7396	17.5443	203.879	-105.651	-14.3512	190.961	-108.829	-38.5695	176.307	-102.211	26.0604	182.596	-105.127	5.07484	186.173	-104.219	-22.6623	181.775	-73.8868	62.1331	169.877	-60.8449	95.3122	190.544	-35.4699	69.8101	
246	2.05	160.371	-1.13411	54.1006	144.241	-3.97546	19.4586	139.405	-10.4611	-5.2733	132.511	-25.9806	-29.21	214.359	-43.4097	5.67906	223.281	-58.61	-22.8316	212.285	-70.5305	-45.9851	222.042	-69.3896	7.94423	226.229	-82.6838	-22.4811	208.128	-85.9093	-54.1735	210.08	-81.6756	15.2772	215.333	-96.7246	-15.3268	201.464	-102.01	-40.1027	188.819	-94.7003	28.4491	196.156	-98.9097	8.22698	197.643	-98.3639	-24.6114	190.704	-70.1649	65.3787	177.695	-58.9804	96.3731	190.652	-27.515	69.9405	
247	2.05833	150.244	-1.40199	55.1148	134.376	-6.45824	21.4946	129.876	-12.8991	-4.72377	124.228	-27.5262	-28.9258	211.865	-27.0493	2.49024	222.352	-42.3929	-25.4745	213.392	-55.8887	-52.1544	223.844	-50.3413	4.94915	230.859	-62.5542	-26.8308	213.911	-73.1936	-54.5857	220.227	-72.1467	11.5543	223.93	-83.2959	-16.4966	210.386	-90.8885	-42.7369	204.019	-88.3271	26.9516	208.212	-88.1239	3.92672	205.893	-91.2539	-23.1662	195.321	-60.1057	66.8614	184.071	-50.0305	94.0356	189.745	-20.238	67.2287	
